<svg id="Capa_1" data-name="Capa 1" xmlns="http://www.w3.org/2000/svg" viewBox="0 0 1000 1004.01"><defs><style>.cls-1{fill:#1b1f2a;}.cls-2{fill:#fff;}.cls-3{fill:#183b68;}.cls-3,.cls-4{stroke:#ca9e67;stroke-miterlimit:10;}.cls-4{fill:none;}</style></defs><title>alertaya-logo-dark</title><rect class="cls-1" width="1000" height="1004.01" rx="81.54"/><path class="cls-2" d="M446.06,880.43H645.69s-27,100.46-123.64,81.14C522.05,961.57,467.92,953.85,446.06,880.43Z" transform="translate(-37.92 -28.16)"/><path class="cls-2" d="M795.16,770.24c-35.21-43.57-64-92.77-72-149-4-28.17-4.72-56.88-6.57-85.27-2.86-44.06-33.38-85.81-69-110.51-13.69-9.49-32.3-11-44.66-22.56-1.87-1.76-4-6.24-5.27-8.28-.36,0-11.1-4.88-11.47-4.87-32.71,1.41-55,5.26-87.76,7.46-1.76.12-5.24-.56-5.36-.13-1.77,5.95-17.15,12.48-25.9,16.58C455.53,419.1,444,424.76,433.32,432c-49,33.42-62.42,88-63.4,144.39-1.4,80.86-29,154.07-85.13,212.35-12.56,13-40.39,40.31-11.14,52.12a47.45,47.45,0,0,0,18,3.1q85.35-.44,170.68-.42l179.88-.25,89.94-.13c26.21,0,55.83,4.4,81.39-2,4.5-1.12,9.05-2.73,12.4-5.94C845.07,816.83,805.44,783,795.16,770.24Z" transform="translate(-37.92 -28.16)"/><path class="cls-2" d="M492.72,398.4l105.53-1.23s-13.09-57.21-48.4-56.79C549.85,340.36,506.32,331.5,492.72,398.4Z" transform="translate(-37.92 -28.16)"/><path class="cls-3" d="M620.42,380.88" transform="translate(-37.92 -28.16)"/><path class="cls-4" d="M319.85,617.7" transform="translate(-37.92 -28.16)"/><path class="cls-2" d="M267.69,671.17c15.06-13,34.4-29.46,49.46-42.49-10.19-41.46-14.6-84.7-9-127S329.67,417.91,357,385.09c54.1-65,138.37-100.61,222.67-87.66,63.69,9.78,123.79,44.37,162,96.55,41.59,56.71,50.59,128.31,40.26,196.51-1.78,11.75-4.09,23.42-6.83,35l48.33,45.68c-.67-.64,9.39-23.6,10-25.27A348.17,348.17,0,0,0,848.86,579c8.94-69.14-4.53-139.69-42.44-198.66-47.19-73.41-127.13-134.21-215-144.91-12.06-1.47-24.19-2.31-36.33-2.77-91.72-3.49-179.57,37.06-239.6,105.92-17.67,20.27-34,42.53-46,66.67C228.72,487.28,236.51,588.17,267.69,671.17Z" transform="translate(-37.92 -28.16)"/><path class="cls-2" d="M175.6,759.8l49.8-42.07c.16-.14-23.55-55.92-24.71-59.51-15.31-47.52-22.62-97.91-19.32-147.8,10.32-156.35,134.14-292.85,284.9-329.25,113.12-27.3,225.46,4.93,313.37,79.76,0,0,221.52,167.43,87.57,459.79l49,39.07s185.41-321.11-109.53-563.24c-73.94-60.71-182.92-91-276.86-87.11-138.21,5.69-272,85.82-344.84,203-74.12,119.24-84.06,264.46-33.17,394.73C153.73,712.1,176.28,759.22,175.6,759.8Z" transform="translate(-37.92 -28.16)"/></svg>