<svg id="Capa_1" data-name="Capa 1" xmlns="http://www.w3.org/2000/svg" viewBox="0 0 1645.06 432.61"><title>alertaya-logo-horizontal</title><path fill="#1a3a66" d="M298.31,478.81h101s-13.69,50.83-62.56,41.06C336.76,519.87,309.39,516,298.31,478.81Z" transform="translate(-133.39 -88.5)"/><path fill="#1a3a66" d="M475,423.05c-17.82-22.05-32.38-46.95-36.44-75.41-2-14.26-2.39-28.78-3.33-43.15-1.45-22.3-16.89-43.42-34.94-55.92-6.93-4.8-16.35-5.55-22.6-11.42A23.54,23.54,0,0,1,375,233c-.18,0-5.62-2.47-5.8-2.46-16.56.71-27.83,2.66-44.41,3.77-.89.06-2.65-.28-2.71-.07-.9,3-8.68,6.32-13.11,8.39a121.49,121.49,0,0,0-17.13,9.28c-24.81,16.91-31.59,44.55-32.08,73.07-.71,40.92-14.65,78-43.08,107.45-6.36,6.59-20.44,20.4-5.64,26.37a24.1,24.1,0,0,0,9.1,1.57c28.79-.15,57.58-.17,86.37-.21l91-.13,45.51-.06c13.26,0,28.26,2.23,41.19-1a13.62,13.62,0,0,0,6.28-3C500.21,446.63,480.16,429.49,475,423.05Z" transform="translate(-133.39 -88.5)"/><path fill="#1a3a66" d="M321.92,234.89l53.4-.63s-6.63-28.95-24.49-28.73C350.82,205.52,328.8,201,321.92,234.89Z" transform="translate(-133.39 -88.5)"/><path fill="#eda722" d="M386.53,226" transform="translate(-133.39 -88.5)"/><path fill="#eda722" d="M234.44,345.86" transform="translate(-133.39 -88.5)"/><path fill="#eda722" d="M208,372.91c7.62-6.59,17.41-14.91,25-21.5-5.16-21-7.39-42.86-4.56-64.28s10.89-42.39,24.71-59c27.38-32.9,70-50.91,112.68-44.36,32.23,4.95,62.64,22.45,82,48.85,21,28.7,25.6,64.93,20.37,99.44-.9,5.95-2.07,11.85-3.46,17.7l24.44,23.14c-.34-.32,4.75-11.94,5-12.78a176.21,176.21,0,0,0,7.81-33.86c4.52-35-2.29-70.68-21.47-100.52-23.88-37.15-64.33-67.92-108.77-73.33-6.1-.74-12.24-1.17-18.38-1.4-46.41-1.75-90.87,18.76-121.24,53.6-8.94,10.26-17.22,21.52-23.29,33.74C188.33,279.87,192.27,330.9,208,372.91Z" transform="translate(-133.39 -88.5)"/><path fill="#eda722" d="M161.45,417.77l25.2-21.29c.08-.07-11.92-28.3-12.5-30.11-7.75-24-11.45-49.54-9.78-74.79,5.22-79.12,67.88-148.19,144.17-166.6,57.24-13.81,114.08,2.5,158.57,40.36,0,0,112.09,84.72,44.32,232.66l24.77,19.77s93.85-162.49-55.4-285c-37.42-30.72-92.56-46-140.1-44.08-69.94,2.88-137.62,43.42-174.5,102.74-37.5,60.32-42.52,133.8-16.78,199.74C150.38,393.63,161.79,417.47,161.45,417.77Z" transform="translate(-133.39 -88.5)"/><path fill="#1b2a3d" d="M705.8,209.53H660.9L572.64,423.2h45.68L633,378.3h95.22l19.36,44.9h44.9ZM644.64,343.46l37.93-85.93L719,343.46Z" transform="translate(-133.39 -88.5)"/><rect fill="#1b2a3d" x="671.51" y="114.83" width="36.39" height="219.87"/><path fill="none" stroke="#1b2a3d" stroke-miterlimit="10" d="M987.61,329.53" transform="translate(-133.39 -88.5)"/><path fill="#1b2a3d" d="M906.51,357l7.48,0,15-.08c15.82-.08,31.64-.12,47.47-.26,16-.15,32.05-.35,48.07,0,1.81-5.08-.27-13.83-.8-19.25a134.54,134.54,0,0,0-3.58-21.11c-3.6-13.63-10.4-26.24-21.43-35.26-22.78-18.63-55.08-23.17-82.55-13.19-30.44,11.06-51.26,41.26-51.63,73.5a83.18,83.18,0,0,0,14.84,48.31l.66.93q1.44,2,3,3.92a118.88,118.88,0,0,0,16.66,16.76c2.39,2,4.94,4.3,7.7,5.76C965.93,448,1016,400.48,1016,400.48l-21.68-23.74a126.54,126.54,0,0,1-11.85,8.62A82.85,82.85,0,0,1,968,392.8a55.8,55.8,0,0,1-12.88,3.36,42.14,42.14,0,0,1-11.33,0,39.52,39.52,0,0,1-9.84-2.73,43.16,43.16,0,0,1-8.4-4.74c-10.16-7.27-17.45-18.5-22.44-29.8C902.14,356.7,905.33,357,906.51,357Zm2.58-39.64c7.91-13.64,23.56-22.74,39.41-21.78,15.29.92,29.73,10.26,35.79,24.5.41,1,3.28,9.43,3.32,9.43H903.74S908.37,318.62,909.09,317.37Z" transform="translate(-133.39 -88.5)"/><path fill="#1b2a3d" d="M1085.93,285.4V264.88h-36.39V424.36l36.39-1.55c0-27.57-.18-55.14,0-82.71a38.23,38.23,0,0,1,18.35-32.73,57.09,57.09,0,0,1,17.37-7c1.56-.36,19-2.83,19.25-1.87-1.09-4.85,0-11.34,0-16.34,0-5.76,0-11.55,0-17.3-5.86.95-12.26-.37-18.22-.2C1106.86,265.13,1093.18,270.51,1085.93,285.4Z" transform="translate(-133.39 -88.5)"/><path fill="#1b2a3d" d="M1151.22,267.07v31.48H1176v44.53c0,25.16-4.09,55,17.72,73,19.27,16,46.57,9.59,67.44.63,0,0-9.76-27.74-9.81-27.87.86,2.44-18.21,5.95-19.84,5.84-21.73-1.49-17.82-32.32-17.7-47.17,0-3.52.12-48.47.38-48.48l38.71-1,.52-33.36h-39.74V226.3h-35.1L1177,264.68h-25.81v2.39Z" transform="translate(-133.39 -88.5)"/><path fill="#1b2a3d" d="M1398.32,264.68v18.4c0-2.62-13.65-9.52-16.06-10.87a87.21,87.21,0,0,0-13.59-6.21,61.94,61.94,0,0,0-28.8-2.7c-40.34,5.18-68.86,42.9-67.08,82.67,1.79,39.95,30.78,79.77,73,81.65a60.66,60.66,0,0,0,28-5.6c2.78-1.26,24.81-12.28,24.32-14.91,1.08,5.82.2,12.74.2,18.79l34.45-1.54V264.68Zm-44.71,130.83c-24.91,0-45.1-22.53-45.1-50.32s20.19-50.32,45.1-50.32,45.1,22.53,45.1,50.32S1378.51,395.51,1353.61,395.51Z" transform="translate(-133.39 -88.5)"/><polygon fill="#f7a61b" points="1302.09 128.77 1362.09 128.77 1403.51 206.37 1443.77 128.77 1504.15 128.77 1431.77 252.25 1431.77 337.41 1372.54 337.41 1373.31 256.69 1302.09 128.77"/><path fill="#f7a61b" d="M1725.8,264.88l.77,17.81c-24.91-36.08-74.55-17.31-95.89,12-14.92,20.46-18.82,46.28-14.43,70.87,10.84,60.77,62.71,62.15,62.71,62.15,31.74,2.54,46.84-18.41,46.84-18.41v16.64h52.65v-161ZM1697,382.56c-17.42,0-31.55-16.9-31.55-37.74s14.12-37.74,31.55-37.74,31.55,16.9,31.55,37.74S1714.39,382.56,1697,382.56Z" transform="translate(-133.39 -88.5)"/></svg>
