<svg id="Capa_1" data-name="Capa 1" xmlns="http://www.w3.org/2000/svg" viewBox="0 0 854.61 855.43"><defs><style>.cls-1,.cls-2{fill:#183b68;}.cls-2,.cls-3,.cls-4{stroke:#ca9e67;}.cls-2,.cls-3{stroke-miterlimit:10;}.cls-3{fill:none;}.cls-4{fill:#f19b23;stroke-linecap:round;stroke-linejoin:round;}</style></defs><title>alertaya-isotipo</title><path class="cls-1" d="M403.13,850.86H602.76s-27,100.46-123.64,81.14C479.12,932,425,924.28,403.13,850.86Z" transform="translate(-76.69 -79.03)"/><path class="cls-1" d="M752.23,740.67c-35.21-43.57-64-92.77-72-149-4-28.17-4.72-56.88-6.57-85.27-2.86-44.06-33.38-85.81-69-110.51-13.69-9.49-32.3-11-44.66-22.56-1.87-1.76-4-6.24-5.27-8.28-.36,0-11.1-4.88-11.47-4.87-32.71,1.41-55,5.26-87.76,7.46-1.76.12-5.24-.56-5.36-.13-1.77,5.95-17.15,12.48-25.9,16.58-11.64,5.44-23.22,11.1-33.85,18.35-49,33.42-62.42,88-63.4,144.39-1.4,80.86-29,154.07-85.13,212.35-12.56,13-40.39,40.31-11.14,52.12a47.52,47.52,0,0,0,18,3.1Q334.07,814,419.4,814l179.88-.25,89.94-.13c26.21,0,55.83,4.4,81.39-2,4.5-1.12,9-2.73,12.4-5.94C802.14,787.26,762.51,753.4,752.23,740.67Z" transform="translate(-76.69 -79.03)"/><path class="cls-1" d="M449.79,368.83l105.53-1.23s-13.09-57.21-48.4-56.79C506.92,310.79,463.39,301.93,449.79,368.83Z" transform="translate(-76.69 -79.03)"/><path class="cls-2" d="M577.49,351.31" transform="translate(-76.69 -79.03)"/><path class="cls-3" d="M276.92,588.13" transform="translate(-76.69 -79.03)"/><path class="cls-4" d="M224.76,641.6c15.06-13,34.4-29.46,49.46-42.49-10.19-41.46-14.6-84.7-9-127s21.52-83.77,48.84-116.59c54.1-65,138.37-100.61,222.67-87.66,63.69,9.78,123.79,44.37,162,96.55,41.59,56.71,50.59,128.31,40.26,196.51-1.78,11.75-4.09,23.42-6.83,35l48.33,45.68c-.67-.64,9.39-23.6,10-25.27a347.42,347.42,0,0,0,15.44-66.9c8.94-69.14-4.53-139.69-42.44-198.66-47.19-73.41-127.13-134.21-215-144.91-12.06-1.47-24.19-2.31-36.33-2.77C420.44,199.6,332.59,240.15,272.56,309c-17.67,20.27-34,42.53-46,66.67C185.79,457.71,193.58,558.6,224.76,641.6Z" transform="translate(-76.69 -79.03)"/><path class="cls-4" d="M132.67,730.23l49.8-42.07c.16-.14-23.55-55.92-24.71-59.51-15.31-47.52-22.62-97.91-19.32-147.8C148.76,324.5,272.58,188,423.34,151.6c113.12-27.3,225.46,4.93,313.37,79.76,0,0,221.52,167.43,87.57,459.79l49,39.07S1058.69,409.11,763.75,167c-73.94-60.71-182.92-91-276.86-87.11-138.21,5.69-272,85.82-344.84,203C67.93,402.11,58,547.33,108.88,677.6,110.8,682.53,133.35,729.65,132.67,730.23Z" transform="translate(-76.69 -79.03)"/></svg>